<svg xmlns="http://www.w3.org/2000/svg" width="40" height="40" viewBox="0 0 40 40">
  <g id="Pouch" transform="translate(-16 -40)">
    <circle id="ellipse" cx="20" cy="20" r="20" transform="translate(16 40)" fill="#fff"/>
    <path id="Path_997" data-name="Path 997" d="M8.416-13.125H-7.219a.656.656,0,0,1-.656-.656.656.656,0,0,1,.656-.656H8.531a.656.656,0,0,0,.656-.656,1.969,1.969,0,0,0-1.969-1.969H-7.875A2.625,2.625,0,0,0-10.5-14.437V-1.312A2.625,2.625,0,0,0-7.875,1.312H8.416A2.031,2.031,0,0,0,10.5-.656v-10.5A2.031,2.031,0,0,0,8.416-13.125ZM6.562-4.594A1.313,1.313,0,0,1,5.25-5.906,1.313,1.313,0,0,1,6.562-7.219,1.313,1.313,0,0,1,7.875-5.906,1.313,1.313,0,0,1,6.562-4.594Z" transform="translate(30.432 65.693) rotate(45)" fill="#3077eb"/>
  </g>
</svg>
